
<svg width="512" height="512" viewBox="0 0 512 512" fill="none" xmlns="http://www.w3.org/2000/svg">
  <rect width="512" height="512" rx="256" fill="#1E3A8A" opacity="0.05"/>
  <path d="M376 168c0-13.3-10.7-24-24-24H160c-13.3 0-24 10.7-24 24v160c0 13.3 10.7 24 24 24h32v32c0 8.8 7.2 16 16 16h32c8.8 0 16-7.2 16-16v-32h64v32c0 8.8 7.2 16 16 16h32c8.8 0 16-7.2 16-16v-32h32c13.3 0 24-10.7 24-24V168zm-40 128h-48v-48h48v48zm0-80h-48v-48h48v48zm-256 80v-48h48v48h-48zm0-80v-48h48v48h-48zm80 80v-48h48v48h-48zm0-80v-48h48v48h-48zm80 80v-48h48v48h-48zm0-80v-48h48v48h-48z" fill="#1E3A8A"/>
</svg>
